<?xml version="1.0" standalone="no"?>
<!DOCTYPE svg PUBLIC "-//W3C//DTD SVG 20010904//EN"
 "http://www.w3.org/TR/2001/REC-SVG-20010904/DTD/svg10.dtd">
<svg version="1.0" xmlns="http://www.w3.org/2000/svg"
 width="1024.000000pt" height="1024.000000pt" viewBox="0 0 1024.000000 1024.000000"
 preserveAspectRatio="xMidYMid meet">

<g transform="translate(0.000000,1024.000000) scale(0.100000,-0.100000)"
fill="#000000" stroke="none">
<path d="M0 5120 l0 -5120 5120 0 5120 0 0 5120 0 5120 -5120 0 -5120 0 0
-5120z m5330 2409 c279 -34 553 -135 776 -285 99 -67 114 -82 93 -95 -38 -25
-56 -20 -135 34 -166 115 -377 204 -584 246 -496 103 -994 -4 -1381 -296 -409
-308 -655 -750 -699 -1259 -35 -397 92 -849 326 -1155 l42 -55 -17 -39 -17
-39 -44 54 c-214 270 -349 647 -366 1025 -34 735 408 1442 1083 1730 161 70
340 117 518 138 69 9 327 6 405 -4z m1500 -194 c0 -42 5 -222 11 -401 6 -179
8 -328 6 -331 -3 -3 -51 22 -106 56 l-101 61 -38 -61 c-20 -33 -122 -194 -226
-357 -226 -356 -637 -1015 -727 -1164 -35 -59 -66 -107 -69 -108 -3 0 -48 35
-100 77 -283 230 -466 373 -475 371 -12 -3 -416 -431 -751 -795 -249 -271
-614 -655 -614 -646 0 2 45 131 101 286 82 231 106 288 133 317 19 19 188 213
376 430 666 768 722 830 733 823 14 -8 170 -127 368 -280 81 -62 152 -113 157
-113 6 0 152 235 323 523 172 287 357 596 411 686 l98 165 -97 52 c-54 29
-104 57 -112 62 -11 6 28 33 145 100 87 50 245 143 349 206 105 63 193 115
198 115 4 1 7 -33 7 -74z m-1849 -8 c48 -37 52 -107 9 -147 -28 -26 -30 -33
-30 -102 l0 -74 60 -59 60 -59 60 59 60 59 0 77 c0 71 -2 78 -25 93 -36 24
-48 61 -35 102 22 65 94 85 147 40 22 -19 28 -32 28 -66 0 -35 -6 -47 -33 -71
-31 -28 -32 -31 -32 -112 l0 -83 -75 -74 -75 -74 0 -142 0 -142 40 -7 c21 -4
44 -4 50 0 6 4 10 48 10 107 l0 101 97 98 c94 96 127 116 140 83 4 -10 -26
-46 -96 -115 l-101 -100 0 -85 c0 -83 0 -84 25 -85 14 -1 35 -2 48 -2 20 -1
22 3 25 60 l3 62 109 101 110 102 0 66 c0 62 -2 67 -32 92 -42 35 -46 95 -9
134 34 36 98 36 131 1 36 -38 32 -101 -9 -137 -29 -26 -31 -32 -31 -101 l0
-72 -110 -110 c-106 -105 -110 -111 -110 -152 l0 -43 233 -2 c127 -1 272 -1
320 0 49 1 87 -2 85 -6 -2 -4 -45 -78 -97 -164 l-95 -157 -605 2 -606 3 -3
157 -3 157 39 0 c22 0 54 3 71 6 29 6 31 9 31 53 0 45 -1 47 -104 144 l-104
97 -3 79 c-4 73 -6 80 -37 109 -65 61 -31 162 55 162 59 -1 93 -38 93 -100 0
-24 -9 -41 -35 -64 -32 -29 -35 -37 -35 -87 l0 -54 110 -110 110 -110 0 -58 0
-58 48 3 47 3 3 85 3 85 -100 100 c-95 94 -100 100 -84 117 16 18 22 14 125
-89 l108 -108 0 -97 0 -98 45 0 45 0 0 148 0 148 -70 69 -70 69 0 80 c0 78 -1
80 -35 112 -29 26 -35 39 -35 73 0 56 34 91 87 91 21 0 45 -6 54 -13z m-546
-616 c50 -29 75 -76 75 -141 0 -132 -125 -209 -240 -148 -162 87 -87 335 95
312 22 -3 53 -13 70 -23z m2298 -203 c206 -418 232 -937 71 -1390 -45 -125
-160 -338 -243 -448 -108 -144 -299 -327 -435 -418 -253 -170 -532 -271 -826
-302 -411 -42 -833 61 -1178 290 l-94 62 23 24 c12 13 25 24 29 24 3 0 44 -25
91 -55 374 -247 851 -336 1301 -244 706 143 1264 746 1347 1454 20 173 22 241
11 360 -21 225 -70 414 -156 594 l-44 94 22 24 c12 13 25 23 28 23 4 0 28 -42
53 -92z m-2223 -601 l0 -404 -26 -24 c-14 -13 -85 -94 -157 -179 -72 -85 -134
-159 -139 -165 -4 -5 -8 257 -8 583 l0 592 165 0 165 0 0 -403z m950 -17 c0
-132 -2 -240 -5 -240 -3 0 -49 35 -103 78 -53 42 -125 97 -159 122 l-61 45 -4
118 -3 117 168 0 167 0 0 -240z m-379 -580 c18 -10 19 -25 19 -338 l0 -328 75
-74 75 -74 0 -82 c0 -80 1 -83 35 -117 45 -45 47 -86 6 -128 -61 -60 -156 -23
-156 61 0 36 6 47 33 70 31 25 32 29 32 102 l0 75 -61 58 -60 58 -32 -30 c-18
-17 -44 -41 -59 -53 -26 -22 -28 -29 -28 -103 0 -75 2 -80 30 -107 63 -59 24
-160 -62 -160 -54 0 -88 34 -88 91 0 34 6 47 34 73 35 31 35 32 34 115 l0 83
71 72 71 71 0 338 c0 185 3 337 6 337 3 0 14 -5 25 -10z m-223 -677 c-57 -57
-108 -103 -114 -103 -6 0 -16 6 -22 13 -9 10 12 36 88 112 l100 100 0 249 c0
245 0 250 23 274 l22 24 3 -283 2 -283 -102 -103z m364 573 c15 -11 17 -40 20
-236 l3 -223 99 -93 c84 -79 97 -96 86 -109 -7 -8 -18 -15 -24 -15 -6 0 -55
44 -108 98 l-97 97 -3 248 c-2 136 -1 247 2 247 3 0 13 -6 22 -14z m-521 -497
l-109 -106 5 -66 c4 -57 9 -72 34 -96 48 -48 37 -116 -22 -147 -61 -31 -129
11 -129 80 0 32 7 47 33 74 30 31 32 37 33 110 l1 77 107 101 106 100 0 129
c0 120 2 130 23 153 l22 24 3 -164 3 -163 -110 -106z m687 248 l3 -115 109
-106 110 -106 0 -78 c0 -75 1 -79 29 -100 54 -40 49 -127 -10 -157 -41 -22
-65 -18 -101 14 -27 24 -33 36 -33 71 0 36 6 47 33 70 30 25 32 31 32 91 l0
64 -110 110 -110 110 0 139 0 138 23 -14 c20 -14 22 -24 25 -131z m-2627
-1446 c35 -36 37 -70 5 -108 -32 -37 -99 -39 -127 -4 -34 41 -20 113 24 131
40 16 68 10 98 -19z m1191 9 c21 -6 40 -15 43 -21 4 -5 1 -32 -6 -60 -10 -38
-16 -48 -28 -43 -9 3 -34 8 -56 11 -60 7 -88 -19 -89 -82 l-1 -49 77 0 78 -1
0 -52 0 -53 -75 0 -75 0 0 -230 0 -230 -70 0 -70 0 -2 228 -3 227 -48 3 -48 3
3 52 3 52 48 3 47 3 0 55 c0 57 22 115 57 146 48 44 137 59 215 38z m3018
-405 l0 -405 -65 0 -65 0 0 35 c0 40 -9 44 -34 16 -49 -54 -167 -76 -258 -49
-56 17 -131 87 -159 150 -34 76 -34 203 0 272 51 104 132 155 244 156 76 0
128 -18 170 -57 l27 -27 0 157 0 157 70 0 70 0 0 -405z m-1670 290 l0 -65
-120 0 -120 0 -2 -217 c-2 -120 -3 -262 -3 -316 l0 -97 -72 0 -73 0 0 315 0
315 -125 0 -125 0 0 65 0 65 320 0 320 0 0 -65z m390 -180 l0 -64 -45 -7 c-51
-7 -98 -35 -129 -77 -19 -26 -21 -44 -24 -198 l-3 -169 -70 0 -69 0 0 285 0
285 70 0 70 0 0 -52 0 -53 21 32 c11 18 37 42 56 55 35 21 100 39 116 31 4 -2
7 -33 7 -68z m-2293 33 c28 -19 50 -45 69 -85 29 -58 29 -58 29 -260 l0 -203
-66 0 -66 0 -6 180 c-7 191 -15 226 -60 254 -47 31 -127 24 -170 -14 -47 -41
-57 -88 -57 -269 l0 -151 -70 0 -70 0 0 285 0 285 70 0 70 0 0 -40 c0 -44 9
-50 28 -20 6 11 33 31 59 45 41 21 59 25 124 23 63 -3 82 -8 116 -30z m1061 1
c110 -55 162 -143 162 -274 0 -117 -52 -198 -163 -257 -59 -32 -210 -33 -278
-2 -97 45 -159 136 -167 244 -5 78 7 129 47 192 54 84 141 127 262 128 65 0
84 -4 137 -31z m1664 21 c50 -14 97 -56 119 -105 15 -33 19 -78 23 -253 l5
-212 -69 0 -70 0 0 30 0 29 -51 -32 c-102 -63 -253 -45 -311 36 -34 48 -37
141 -6 187 39 59 98 81 238 87 l120 6 0 29 c0 39 -46 84 -95 94 -28 5 -58 1
-109 -15 -101 -31 -98 -32 -118 21 l-18 48 40 20 c22 11 57 24 77 29 53 13
181 13 225 1z m1384 -14 c97 -45 154 -144 154 -268 l0 -58 -215 0 c-237 0
-238 0 -194 -61 55 -77 170 -87 264 -23 l38 25 36 -33 c20 -18 38 -34 40 -36
10 -6 -44 -52 -92 -78 -72 -39 -187 -45 -269 -15 -252 95 -246 466 9 557 63
22 170 18 229 -10z m-4736 -271 l0 -285 -70 0 -70 0 0 285 0 285 70 0 70 0 0
-285z m2004 -187 c34 -49 7 -108 -49 -108 -58 0 -92 58 -61 105 22 34 87 36
110 3z m4921 -2037 c16 -74 120 -178 198 -197 35 -8 35 -21 -2 -29 -74 -16
-178 -120 -197 -197 -8 -36 -21 -36 -29 1 -16 74 -120 178 -197 197 -36 8 -36
21 1 29 74 16 178 120 197 198 8 35 21 35 29 -2z"/>
<path d="M4897 7282 c-10 -10 -17 -26 -17 -35 0 -15 35 -47 52 -47 11 0 48 38
48 50 0 15 -38 50 -53 50 -8 0 -21 -8 -30 -18z"/>
<path d="M5199 7282 c-17 -14 -20 -25 -15 -45 11 -45 71 -47 82 -1 11 45 -31
74 -67 46z"/>
<path d="M4535 7126 c-18 -26 -11 -52 16 -67 22 -12 53 2 63 27 9 23 -20 64
-44 64 -11 0 -26 -11 -35 -24z"/>
<path d="M5556 7134 c-30 -30 -13 -74 29 -74 42 0 59 44 29 74 -8 9 -22 16
-29 16 -7 0 -21 -7 -29 -16z"/>
<path d="M4895 4260 c-38 -42 25 -100 66 -59 24 24 24 34 -1 59 -25 25 -42 25
-65 0z"/>
<path d="M5196 4264 c-30 -30 -13 -74 29 -74 42 0 59 44 29 74 -8 9 -22 16
-29 16 -7 0 -21 -7 -29 -16z"/>
<path d="M4528 4395 c-9 -21 -8 -28 7 -45 31 -34 75 -20 75 25 0 48 -62 63
-82 20z"/>
<path d="M5552 4408 c-21 -21 -14 -57 14 -70 31 -14 57 -1 62 31 7 42 -46 69
-76 39z"/>
<path d="M6586 3148 c-111 -65 -108 -246 4 -305 77 -41 155 -24 206 43 26 33
29 45 29 110 0 78 -13 107 -68 148 -41 30 -123 32 -171 4z"/>
<path d="M4266 3166 c-82 -30 -122 -97 -114 -193 8 -91 63 -144 155 -150 72
-5 119 18 150 73 27 46 31 139 9 183 -19 36 -82 91 -104 91 -9 0 -26 2 -37 5
-11 3 -37 -2 -59 -9z"/>
<path d="M5918 2944 c-55 -29 -49 -106 9 -131 87 -36 193 22 193 106 l0 41
-87 0 c-58 -1 -97 -6 -115 -16z"/>
<path d="M7315 3166 c-38 -17 -60 -41 -80 -89 l-15 -37 150 0 c168 0 169 0
132 69 -33 62 -117 88 -187 57z"/>
</g>
</svg>
